<?xml version="1.0" standalone="no"?>
<!DOCTYPE svg PUBLIC "-//W3C//DTD SVG 20010904//EN"
 "http://www.w3.org/TR/2001/REC-SVG-20010904/DTD/svg10.dtd">
<svg version="1.0" xmlns="http://www.w3.org/2000/svg"
 width="300.000000pt" height="85.000000pt" viewBox="0 0 300.000000 85.000000"
 preserveAspectRatio="xMidYMid meet">
<metadata>
Created by potrace 1.10, written by Peter Selinger 2001-2011
</metadata>
<g transform="translate(0.000000,85.000000) scale(0.100000,-0.100000)"
fill="#000000" stroke="none">
<path d="M447 608 l-108 -60 3 -120 3 -120 107 -58 107 -58 103 58 c86 48 104
61 106 83 2 15 -1 27 -7 27 -6 0 -11 -10 -11 -22 -1 -19 -19 -33 -95 -74 l-95
-52 0 68 c0 36 3 70 7 73 3 4 7 49 7 99 1 79 3 93 18 96 10 2 28 -6 40 -18 19
-17 21 -24 10 -40 -15 -25 -16 -38 0 -22 19 19 31 14 24 -12 -4 -15 -1 -26 7
-29 22 -8 -18 -62 -47 -62 -18 1 -22 -3 -15 -11 14 -17 -8 -29 -26 -14 -11 9
-15 9 -15 1 0 -19 30 -25 55 -11 14 7 37 10 54 7 32 -7 50 8 33 25 -8 8 -16 7
-27 -2 -20 -17 -25 -11 -14 18 9 25 35 29 58 8 9 -7 33 -16 54 -20 33 -6 37
-5 37 14 0 18 -4 20 -33 15 -25 -5 -43 -1 -68 15 l-34 22 83 -5 c86 -4 97 -1
82 23 -8 12 -13 13 -30 3 -29 -19 -140 -17 -140 1 0 8 -3 22 -6 31 -5 13 -2
15 20 9 20 -5 26 -2 26 9 0 22 -18 31 -35 17 -10 -9 -20 -4 -44 19 -34 33 -50
38 -69 19 -9 -9 -12 -7 -12 10 0 23 -30 45 -47 34 -6 -4 -15 -20 -18 -35 -4
-15 -11 -27 -16 -27 -5 0 -14 -10 -19 -22 -6 -17 -9 -18 -9 -6 -1 18 -34 33
-51 23 -16 -10 -12 -42 6 -49 9 -3 20 -3 25 0 6 3 21 -2 34 -10 14 -9 25 -12
25 -6 0 5 -4 10 -10 10 -19 0 -10 37 15 60 37 35 53 15 50 -62 -3 -46 -8 -66
-22 -76 -17 -13 -17 -14 2 -8 17 5 20 2 20 -19 -2 -30 -19 -50 -35 -40 -8 5
-8 10 0 20 9 11 7 12 -11 8 -15 -4 -27 1 -40 18 -21 27 -26 64 -7 53 8 -5 9
-2 5 10 -4 10 -7 22 -7 27 0 6 -8 6 -19 -1 -14 -7 -22 -7 -27 1 -3 6 -15 9
-25 6 -16 -4 -18 -1 -13 21 3 15 15 34 25 44 10 9 19 22 19 28 0 7 8 2 18 -10
25 -31 56 -17 48 22 -3 17 -2 27 4 23 5 -3 18 0 29 7 15 9 23 9 35 -1 14 -12
16 -10 16 12 0 24 1 24 95 -27 l94 -51 1 -42 c0 -24 5 -43 10 -43 6 0 10 20
10 44 0 50 3 47 -130 118 l-85 46 -108 -60z m-19 -219 c24 -1 23 -2 -8 -10
-40 -9 -64 -4 -55 12 4 6 14 8 22 5 8 -3 27 -6 41 -7z m45 -41 c9 -7 18 -24
19 -37 4 -31 -41 -52 -66 -31 -21 17 -20 57 2 69 22 13 25 13 45 -1z m60 -90
c-2 -5 -8 -8 -13 -8 -10 0 -11 48 -1 65 6 11 20 -46 14 -57z"/>
<path d="M433 333 c-18 -7 -16 -40 2 -47 25 -9 46 5 43 28 -3 21 -22 29 -45
19z"/>
<path d="M1764 566 c-9 -24 4 -48 23 -44 24 4 24 52 0 56 -9 2 -20 -4 -23 -12z"/>
<path d="M2176 520 c6 -38 -6 -55 -21 -30 -19 31 -97 -9 -109 -56 -10 -40 11
-92 45 -110 27 -13 33 -13 59 0 17 8 30 10 30 5 0 -5 9 -9 20 -9 19 0 20 7 20
120 l0 120 -25 0 c-24 0 -25 -2 -19 -40z m-10 -85 c22 -34 6 -75 -29 -75 -45
0 -64 52 -31 84 22 23 41 20 60 -9z"/>
<path d="M2316 487 c-16 -39 -40 -93 -53 -119 l-23 -48 30 0 c23 0 31 5 36 25
6 23 11 25 60 25 49 0 55 -2 69 -30 11 -21 23 -30 41 -30 14 0 24 4 22 8 -1 5
-25 61 -53 125 -44 106 -51 117 -75 117 -22 0 -29 -9 -54 -73z m75 -32 l17
-45 -38 0 -38 0 17 45 c9 25 18 45 21 45 3 0 12 -20 21 -45z"/>
<path d="M2540 434 l0 -125 26 3 25 3 2 123 2 122 -27 0 -28 0 0 -126z"/>
<path d="M941 491 c-26 -17 -6 -36 40 -36 33 0 44 -4 47 -17 3 -15 -4 -18 -41
-18 -51 0 -70 -16 -65 -57 4 -40 48 -60 88 -39 17 8 30 10 30 5 0 -5 9 -9 20
-9 18 0 20 7 20 70 0 87 -18 110 -82 110 -24 0 -49 -4 -57 -9z m87 -113 c-3
-26 -43 -37 -62 -18 -8 8 -6 15 8 26 31 22 58 18 54 -8z"/>
<path d="M1128 410 l-3 -90 27 0 c27 0 27 1 22 44 -7 50 8 86 36 86 15 0 20 7
20 25 0 29 -16 32 -42 8 -17 -15 -18 -15 -18 0 0 10 -8 17 -19 17 -18 0 -20
-9 -23 -90z"/>
<path d="M1275 475 c-31 -30 -35 -103 -7 -128 40 -36 112 -38 141 -3 10 12 8
17 -9 26 -16 9 -25 9 -33 1 -21 -21 -57 -13 -68 15 -17 47 35 96 67 64 12 -12
44 -3 44 12 0 42 -98 51 -135 13z"/>
<path d="M1440 410 c0 -89 0 -90 25 -90 24 0 25 3 25 59 0 66 18 93 48 74 12
-7 18 -27 20 -72 3 -57 4 -61 27 -61 24 0 25 3 25 64 0 56 3 66 20 71 33 10
40 -3 40 -71 0 -62 1 -64 25 -64 24 0 25 2 25 68 0 80 -17 112 -59 112 -15 0
-36 -6 -46 -14 -16 -11 -21 -11 -33 0 -16 17 -46 18 -73 4 -13 -7 -19 -7 -19
0 0 5 -11 10 -25 10 -25 0 -25 -1 -25 -90z"/>
<path d="M1760 410 c0 -89 0 -90 25 -90 25 0 25 1 25 90 0 89 0 90 -25 90 -25
0 -25 -1 -25 -90z"/>
<path d="M1850 410 c0 -89 0 -90 25 -90 24 0 25 3 25 59 0 66 18 93 48 74 12
-7 18 -27 20 -72 3 -57 4 -61 27 -61 23 0 25 3 25 54 0 58 -13 106 -33 118
-18 12 -62 9 -75 -4 -9 -9 -12 -9 -12 0 0 7 -11 12 -25 12 -25 0 -25 -1 -25
-90z"/>
<path d="M520 444 c0 -11 -6 -14 -21 -9 -14 5 -19 3 -15 -3 3 -6 2 -13 -3 -17
-11 -6 -3 -35 9 -35 5 0 6 8 3 19 -3 12 2 20 16 24 18 4 31 37 16 37 -3 0 -5
-7 -5 -16z"/>
<path d="M591 447 c-1 -11 8 -21 20 -24 14 -4 19 -12 16 -24 -3 -11 -2 -19 3
-19 12 0 20 29 9 35 -5 4 -6 11 -3 17 4 6 -1 8 -14 4 -15 -5 -22 -2 -25 11 -4
17 -5 17 -6 0z"/>
</g>
</svg>
