<?xml version="1.0" standalone="no"?>
<!DOCTYPE svg PUBLIC "-//W3C//DTD SVG 20010904//EN"
 "http://www.w3.org/TR/2001/REC-SVG-20010904/DTD/svg10.dtd">
<svg version="1.0" xmlns="http://www.w3.org/2000/svg"
 width="300.000000pt" height="260.000000pt" viewBox="0 0 300.000000 260.000000"
 preserveAspectRatio="xMidYMid meet">
<metadata>
Created by potrace 1.10, written by Peter Selinger 2001-2011
</metadata>
<g transform="translate(0.000000,260.000000) scale(0.100000,-0.100000)"
fill="#000000" stroke="none">
<path d="M1180 2428 c-144 -79 -415 -228 -747 -409 l-172 -94 -1 -617 0 -617
133 -74 c353 -198 923 -512 933 -515 13 -3 58 21 669 361 l400 223 3 122 3
122 -36 0 -35 0 0 -104 0 -104 -62 -32 c-35 -18 -153 -83 -263 -145 -110 -62
-272 -152 -360 -200 -88 -49 -193 -108 -234 -132 -40 -24 -75 -43 -77 -43 -2
0 -4 440 -4 979 l0 978 -80 47 c-44 25 -81 46 -84 46 -2 0 -38 -21 -80 -46
l-76 -46 0 -103 0 -104 -82 -50 c-46 -28 -89 -55 -95 -61 -9 -7 -13 -39 -13
-91 0 -75 -2 -82 -30 -112 -16 -18 -30 -34 -30 -38 0 -3 -27 -21 -61 -40 l-60
-34 3 -107 3 -107 -60 -37 c-33 -20 -78 -47 -100 -60 l-40 -23 -63 35 c-50 28
-62 40 -62 60 0 13 3 24 8 24 4 0 32 -16 61 -36 43 -29 58 -35 70 -26 9 7 44
29 78 49 l63 38 0 96 0 96 -52 28 c-29 15 -65 36 -79 46 -25 18 -26 17 -87
-21 -34 -22 -64 -35 -67 -30 -12 19 16 56 59 80 l46 25 0 105 0 105 77 45 c43
25 83 46 90 48 9 2 13 22 13 57 0 43 4 56 19 65 30 16 31 14 31 -49 l0 -59 72
-43 c40 -24 76 -45 79 -47 3 -1 40 18 82 43 l76 46 3 91 3 91 -35 23 c-19 13
-40 24 -47 24 -20 0 -15 18 8 30 17 10 27 7 57 -12 l36 -24 79 48 c43 27 85
52 93 55 7 3 48 -16 90 -41 42 -25 79 -46 83 -46 3 0 4 57 1 126 -3 69 -3 127
0 129 3 1 50 -23 105 -55 55 -31 235 -132 400 -225 165 -92 344 -192 398 -222
l97 -55 0 -83 0 -83 30 -4 c17 -3 32 -2 35 0 3 3 5 52 5 108 l0 103 -77 42
c-141 76 -276 151 -388 214 -60 34 -173 97 -250 140 -77 43 -187 105 -243 137
-57 32 -107 58 -110 57 -4 0 -72 -36 -152 -81z m110 -77 c0 -44 -4 -82 -9 -86
-5 -3 -31 6 -58 20 -57 31 -70 29 -158 -25 -70 -43 -96 -48 -114 -26 -10 12
-1 21 51 49 35 19 108 60 163 91 55 30 106 55 113 56 8 0 12 -22 12 -79z
m-412 -212 c40 -44 42 -49 42 -110 l0 -64 -57 -34 -56 -34 -35 19 c-60 32 -82
54 -82 81 0 14 -7 40 -16 59 -9 19 -15 37 -13 39 10 9 164 93 169 92 3 -1 25
-23 48 -48z m351 0 c28 -16 53 -39 57 -51 3 -11 3 -49 -1 -83 l-6 -64 -47 25
c-47 26 -74 27 -155 8 l-28 -7 3 69 3 69 50 32 c27 18 55 33 62 33 7 0 35 -14
62 -31z m-669 -142 c0 -29 -6 -36 -68 -75 -103 -63 -106 -68 -112 -179 -5 -86
-8 -97 -30 -114 -47 -36 -50 -30 -50 120 0 116 3 141 16 152 26 21 218 128
232 128 7 1 12 -12 12 -32z m643 -61 c18 -7 41 -23 52 -36 19 -21 20 -36 20
-514 0 -444 -2 -494 -17 -522 -19 -34 -71 -64 -112 -64 -49 0 -136 58 -136 91
0 4 18 9 39 13 43 7 111 62 111 90 0 29 -29 30 -52 1 -41 -52 -137 -71 -198
-40 -38 20 -70 62 -70 94 0 18 -14 40 -45 70 -69 67 -81 148 -31 216 14 20 15
20 41 -5 26 -24 27 -25 41 -6 13 18 11 23 -16 51 -17 17 -35 46 -40 65 -12 42
2 106 30 134 l21 21 24 -31 c13 -17 38 -37 54 -44 23 -9 31 -19 33 -43 4 -42
41 -46 46 -5 5 39 -13 65 -58 88 -85 43 -94 147 -18 217 12 12 36 23 52 26 24
3 32 11 43 42 17 48 28 62 72 85 43 23 71 24 114 6z m-706 -427 c54 -29 63
-45 63 -109 0 -61 -11 -77 -79 -118 l-34 -21 -48 25 c-27 13 -60 24 -74 24
-25 0 -25 0 -25 90 l0 90 28 0 c15 1 43 9 62 20 45 25 61 25 107 -1z m244
-147 c-43 -53 -54 -92 -44 -147 6 -27 13 -58 18 -67 6 -16 -1 -18 -78 -18
-136 0 -146 11 -59 63 92 57 98 68 106 177 5 82 9 98 28 114 l23 18 14 -57
c13 -54 13 -58 -8 -83z m-401 -189 c14 -9 26 -17 28 -18 2 -2 -7 -19 -19 -39
-26 -45 -20 -92 16 -126 14 -13 25 -27 25 -31 0 -9 -70 -59 -82 -59 -5 0 -8
65 -8 145 0 80 3 145 8 145 4 0 19 -8 32 -17z m133 -45 c12 -6 27 -17 32 -24
7 -10 46 -14 134 -16 116 -3 125 -4 139 -25 l14 -23 -137 0 c-134 0 -138 -1
-161 -25 -28 -30 -62 -32 -98 -4 -41 32 -31 99 17 119 30 12 35 12 60 -2z
m337 -122 c0 -2 3 -11 6 -20 4 -10 1 -16 -7 -16 -8 0 -54 -20 -103 -45 l-89
-45 -59 33 c-62 34 -68 45 -40 70 14 13 44 17 137 20 66 1 128 4 138 5 9 1 17
0 17 -2z m-274 -126 c47 -27 86 -50 89 -50 2 0 40 23 84 50 44 28 86 50 94 50
7 0 55 -26 107 -58 l95 -57 3 -115 2 -115 -101 -60 c-55 -33 -105 -59 -112
-57 -6 2 -53 28 -104 58 l-93 55 0 107 0 107 -73 40 c-39 22 -76 41 -82 43 -5
1 -34 -13 -63 -33 -30 -19 -58 -35 -63 -35 -10 0 0 53 10 58 3 1 29 16 56 32
28 16 54 30 58 30 5 0 46 -22 93 -50z m-49 -71 c71 -39 73 -43 73 -141 0 -48
-3 -88 -7 -88 -11 0 -106 51 -183 98 -59 35 -65 42 -65 72 0 28 4 33 26 36 14
1 43 12 65 23 47 26 45 26 91 0z m805 -322 c2 -174 1 -317 -1 -317 -4 0 -239
127 -363 197 -54 30 -96 58 -93 62 2 4 39 28 82 54 121 71 127 79 131 197 3
55 7 100 11 100 3 0 12 -4 20 -9 23 -15 16 -217 -9 -248 -29 -37 -34 -77 -14
-118 46 -98 161 -88 204 16 11 25 9 36 -14 81 -21 44 -26 71 -30 158 l-5 105
32 27 c18 15 35 24 39 20 4 -4 9 -150 10 -325z m-113 154 c-2 -105 -2 -110 24
-141 35 -41 34 -65 -3 -102 -25 -24 -36 -29 -58 -24 -61 15 -82 85 -37 127 23
23 25 30 25 137 l0 112 26 0 26 0 -3 -109z"/>
<path d="M1102 1810 c-12 -5 -30 -25 -39 -45 -12 -24 -23 -35 -39 -35 -25 0
-49 -24 -39 -40 8 -13 51 -13 75 0 10 5 27 25 39 45 23 39 53 46 82 19 20 -18
49 -12 49 10 0 33 -85 64 -128 46z"/>
<path d="M1096 1619 c-49 -38 -58 -109 -15 -109 14 0 19 7 19 25 0 27 31 65
54 65 7 0 25 -9 40 -21 26 -21 46 -18 46 6 0 22 -50 55 -85 55 -18 0 -44 -10
-59 -21z"/>
<path d="M1137 1448 c-2 -7 3 -27 11 -45 14 -29 14 -34 -2 -58 -33 -50 -97
-58 -134 -15 -20 24 -38 26 -46 4 -4 -10 5 -26 25 -45 26 -25 39 -29 85 -29
48 0 57 4 89 35 29 30 35 43 35 78 0 45 -22 87 -45 87 -7 0 -15 -6 -18 -12z"/>
<path d="M854 1216 c-8 -21 13 -46 40 -46 30 0 42 -11 50 -42 10 -41 52 -86
67 -71 9 9 6 22 -11 58 -19 38 -21 51 -11 71 6 14 11 29 11 34 0 14 -37 12
-46 -1 -6 -11 -44 -8 -76 6 -12 5 -20 2 -24 -9z"/>
<path d="M1204 1193 c-16 -32 -24 -38 -49 -37 -16 0 -38 4 -47 8 -12 6 -20 3
-24 -8 -11 -27 15 -46 63 -46 56 0 106 43 101 87 -5 40 -24 39 -44 -4z"/>
<path d="M718 834 l-76 -46 2 -92 3 -91 79 -47 79 -47 30 20 c17 11 51 32 77
47 l48 27 0 95 0 95 -73 40 c-39 22 -76 41 -82 42 -5 2 -45 -18 -87 -43z m148
-35 l54 -30 0 -62 c0 -72 -2 -75 -55 -110 -50 -34 -70 -34 -127 2 -42 26 -47
34 -53 78 -3 27 -2 60 4 75 9 25 81 75 110 77 7 1 38 -13 67 -30z"/>
<path d="M1816 2029 c-14 -11 -26 -27 -26 -35 0 -13 -15 -15 -97 -10 -54 3
-120 7 -148 11 -60 7 -116 -20 -152 -74 l-23 -34 0 -506 c0 -505 0 -506 23
-545 27 -48 70 -75 134 -84 l47 -7 -3 -63 -2 -62 79 0 c73 0 80 -2 91 -24 33
-60 118 -58 154 4 25 42 21 77 -12 111 -38 38 -91 40 -126 4 -14 -13 -25 -29
-25 -35 0 -7 -21 -10 -57 -8 l-57 3 1 45 c0 25 6 46 13 48 22 8 79 63 85 83 6
17 16 19 135 19 124 0 130 -1 141 -22 17 -33 40 -47 72 -48 39 0 64 15 83 51
46 89 -71 175 -141 104 -14 -13 -25 -29 -25 -35 0 -6 -32 -10 -82 -10 l-82 0
37 38 c21 21 42 55 48 76 6 20 28 55 50 77 21 21 39 46 39 54 0 12 14 15 66
15 l66 0 69 -70 68 -70 111 0 111 0 33 -35 c42 -44 94 -48 131 -10 57 56 15
155 -66 155 -31 0 -43 -6 -64 -33 l-26 -32 -105 1 -105 1 -72 71 -72 71 -64 3
c-61 3 -64 4 -66 28 -1 14 -5 35 -9 48 l-7 22 340 0 c231 0 341 -3 341 -10 0
-6 11 -22 25 -35 55 -55 155 -12 155 66 0 96 -121 131 -168 49 l-17 -30 -352
0 c-326 0 -353 1 -361 18 -5 9 -6 31 -3 47 l6 30 112 0 112 0 53 53 54 52 172
0 c142 0 172 -2 172 -14 0 -24 50 -56 87 -56 43 0 93 46 93 85 0 60 -66 117
-116 99 -27 -10 -64 -45 -64 -61 0 -12 -31 -14 -180 -12 l-181 2 -55 -52 -56
-52 -101 3 -101 3 -8 30 c-4 17 -23 46 -42 65 -20 19 -36 45 -36 58 0 20 5 22
55 22 32 0 55 -4 55 -10 0 -6 11 -22 25 -35 53 -54 155 -11 155 65 0 76 -102
119 -155 65 -14 -13 -25 -29 -25 -35 0 -6 -25 -10 -60 -10 -43 0 -60 4 -60 13
0 23 -67 93 -107 111 -26 11 -44 28 -53 49 -7 18 -15 35 -18 40 -2 4 19 7 47
7 46 0 52 -3 65 -29 30 -56 125 -58 155 -3 49 91 -53 184 -133 121z m102 -63
c5 -22 -25 -56 -49 -56 -24 0 -48 36 -42 61 12 44 83 39 91 -5z m-320 -36 c35
-16 47 -29 67 -73 20 -47 28 -55 58 -61 108 -20 132 -190 32 -232 -43 -17 -65
-49 -65 -92 0 -29 3 -33 23 -30 16 2 23 11 25 31 2 19 15 35 41 51 20 13 45
34 54 47 l16 24 20 -25 c49 -60 47 -145 -5 -197 -28 -28 -31 -51 -8 -60 9 -3
21 3 30 16 8 11 19 21 24 21 19 0 40 -61 40 -115 0 -54 -2 -59 -50 -109 -34
-36 -50 -61 -50 -80 0 -16 -13 -40 -33 -62 -28 -31 -42 -37 -84 -41 -65 -7
-118 11 -145 48 -23 30 -42 37 -54 18 -18 -30 72 -109 124 -109 27 0 28 -10 1
-44 -44 -56 -118 -72 -176 -36 -68 41 -65 17 -64 561 1 543 -1 526 64 554 43
19 64 18 115 -5z m493 -190 c29 -16 26 -67 -6 -82 -21 -9 -28 -8 -45 7 -26 24
-25 50 2 69 27 19 24 19 49 6z m662 -131 c13 -21 1 -65 -19 -73 -42 -16 -83
51 -52 82 17 17 58 11 71 -9z m42 -243 c30 -45 -16 -91 -61 -61 -28 18 -31 41
-7 67 22 25 49 23 68 -6z m-187 -282 c26 -18 28 -41 5 -66 -22 -24 -49 -23
-67 4 -20 29 -20 34 4 58 24 24 29 24 58 4z m-517 -154 c37 -20 18 -80 -26
-80 -42 0 -59 44 -29 74 18 19 28 20 55 6z m-243 -252 c28 -28 7 -78 -33 -78
-12 0 -26 5 -33 12 -7 7 -12 21 -12 33 0 12 5 26 12 33 7 7 21 12 33 12 12 0
26 -5 33 -12z"/>
<path d="M1481 1786 c-35 -37 -1 -67 35 -31 26 25 53 18 75 -20 24 -40 46 -55
83 -55 38 0 35 35 -4 49 -17 5 -34 21 -40 35 -19 52 -109 65 -149 22z"/>
<path d="M1488 1624 c-28 -15 -37 -47 -17 -59 5 -4 18 0 28 9 21 19 64 21 79
4 5 -7 12 -24 14 -38 2 -17 9 -25 23 -25 27 0 31 32 10 71 -28 52 -84 67 -137
38z"/>
<path d="M1511 1446 c-21 -26 -25 -90 -7 -124 34 -65 138 -84 195 -36 17 14
31 32 31 39 0 26 -21 26 -51 1 -37 -32 -77 -33 -114 -5 -27 22 -28 29 -13 114
4 24 -24 32 -41 11z"/>
<path d="M1445 1220 c-12 -19 6 -70 32 -90 25 -20 84 -27 117 -14 9 3 16 15
16 26 0 17 -5 19 -39 13 -49 -8 -76 5 -89 45 -11 30 -26 38 -37 20z"/>
<path d="M1694 1219 c-3 -6 -1 -16 5 -22 17 -17 13 -56 -10 -94 -15 -24 -18
-38 -11 -45 23 -23 54 11 76 84 2 9 18 19 35 23 35 8 55 29 47 50 -5 14 -9 14
-34 1 -25 -13 -32 -13 -57 0 -33 17 -42 17 -51 3z"/>
<path d="M538 1852 l-78 -47 0 -87 0 -87 82 -49 81 -49 79 49 78 50 0 92 -1
91 -74 43 c-41 23 -78 42 -82 41 -5 0 -43 -22 -85 -47z m141 -29 c59 -34 61
-37 61 -103 0 -30 -4 -60 -8 -65 -13 -18 -91 -65 -108 -65 -25 0 -102 47 -114
70 -12 22 -13 100 -2 116 9 14 103 74 116 74 5 0 30 -12 55 -27z"/>
</g>
</svg>
